<svg width="27" height="27" xmlns="http://www.w3.org/2000/svg" xmlns:xlink="http://www.w3.org/1999/xlink" xml:space="preserve" overflow="hidden"><defs><clipPath id="clip0"><rect x="291" y="289" width="27" height="27"/></clipPath></defs><g clip-path="url(#clip0)" transform="translate(-291 -289)"><path d="M304.494 291.812C298.595 291.812 293.812 296.595 293.812 302.494 293.812 308.394 298.594 313.176 304.494 313.176 310.393 313.176 315.176 308.394 315.176 302.495 315.176 302.494 315.176 302.494 315.176 302.494 315.178 296.597 310.4 291.815 304.503 291.812 304.5 291.812 304.497 291.812 304.494 291.812ZM305.599 308.259C305.48 308.537 305.259 308.759 304.981 308.878 304.838 308.938 304.684 308.97 304.528 308.969 304.218 308.969 303.92 308.847 303.7 308.628 303.594 308.521 303.509 308.396 303.45 308.258 303.389 308.115 303.358 307.96 303.358 307.805 303.358 307.494 303.48 307.196 303.7 306.976 304.155 306.52 304.893 306.519 305.349 306.974 305.35 306.975 305.35 306.975 305.351 306.976L305.351 306.976C305.458 307.083 305.543 307.21 305.601 307.349 305.662 307.493 305.693 307.648 305.693 307.805 305.693 307.961 305.661 308.115 305.599 308.258ZM306.592 303.32C305.824 303.783 305.35 304.611 305.338 305.508L303.65 305.508C303.66 304.03 304.433 302.663 305.694 301.892 306.751 301.229 307.07 299.835 306.408 298.779 305.745 297.722 304.352 297.402 303.295 298.065 302.636 298.478 302.236 299.201 302.236 299.979L300.548 299.979C300.548 297.8 302.314 296.033 304.493 296.032 306.672 296.031 308.439 297.797 308.44 299.976 308.441 301.334 307.743 302.597 306.592 303.32Z"/></g></svg>